Coordinates
version=1
nRows=16
nColumns=38
inDegrees=no

Units are S.I. units (second, meters, Newtons, ...)
If the header above contains a line with 'inDegrees', this indicates whether rotational values are in degrees (yes) or radians (no).

endheader
time	pelvis_tilt	pelvis_list	pelvis_rotation	pelvis_tx	pelvis_ty	pelvis_tz	hip_flexion_r	hip_adduction_r	hip_rotation_r	knee_angle_r	ankle_angle_r	subtalar_angle_r	mtp_angle_r	hip_flexion_l	hip_adduction_l	hip_rotation_l	knee_angle_l	ankle_angle_l	subtalar_angle_l	mtp_angle_l	lumbar_extension	lumbar_bending	lumbar_rotation	arm_flex_r	arm_add_r	arm_rot_r	elbow_flex_r	pro_sup_r	wrist_flex_r	wrist_dev_r	arm_flex_l	arm_add_l	arm_rot_l	elbow_flex_l	pro_sup_l	wrist_flex_l	wrist_dev_l
0.11	0.10047	-0.0457922	-0.0525705	0.940113	1.04484	-0.317334	0.294211	0.0545743	-0.362485	-0.312451	-0.130117	0.030798	-0.00305	-0.338577	-0.139206	-0.35866	-1.30915	-0.109064	0.0409545	-0.00521385	-0.296364	0.101139	-0.149234	-0.613914	-0.129402	-0.229735	2.07091	1.5066	0.00588342	0.0429652	-0.311566	-0.316175	0.145562	2.35229	1.65105	0.0355502	0.0102162
0.12	0.104097	-0.0580095	-0.0535038	0.936327	1.03703	-0.316408	0.309814	0.0748745	-0.345925	-0.420291	-0.0395261	0.030798	-0.00305	-0.28343	-0.168312	-0.33512	-1.4297	-0.0691045	0.0409545	-0.00521385	-0.312896	0.112284	-0.130792	-0.576277	-0.13321	-0.224937	2.04484	1.50647	0.00588342	0.0429652	-0.32335	-0.329868	0.119326	2.30873	1.66057	0.0355502	0.0102162
0.13	0.106561	-0.0683433	-0.0543778	0.932388	1.02886	-0.315861	0.319216	0.0927172	-0.331472	-0.515207	0.0461624	0.030798	-0.00305	-0.223011	-0.19093	-0.308715	-1.53804	-0.0331342	0.0409545	-0.00521385	-0.32881	0.120793	-0.110873	-0.537117	-0.138406	-0.21825	2.02155	1.50901	0.00588342	0.0429652	-0.333581	-0.341754	0.0946743	2.26838	1.67156	0.0355502	0.0102162
0.14	0.107926	-0.076727	-0.0551933	0.928266	1.0209	-0.31564	0.322387	0.107968	-0.318987	-0.597305	0.126876	0.030798	-0.00305	-0.157514	-0.207025	-0.279628	-1.63402	-0.00104903	0.0409545	-0.00521385	-0.344127	0.126633	-0.0893019	-0.496723	-0.144862	-0.209864	2.00132	1.51413	0.00588342	0.0429652	-0.34216	-0.35188	0.0718713	2.23132	1.68381	0.0355502	0.0102162
0.15	0.108308	-0.0829807	-0.0559411	0.923966	1.01372	-0.315676	0.319097	0.12034	-0.308048	-0.666512	0.202313	0.030798	-0.00305	-0.0874833	-0.216569	-0.248403	-1.71722	0.027423	0.0409545	-0.00521385	-0.358812	0.129685	-0.0658286	-0.455769	-0.152327	-0.200092	1.98482	1.52156	0.00588342	0.0429652	-0.349011	-0.360332	0.0514517	2.1978	1.69665	0.0355502	0.0102162
0.16	0.10782	-0.0867776	-0.0565781	0.919525	1.00769	-0.315879	0.308874	0.129415	-0.297961	-0.722351	0.271867	0.030798	-0.00305	-0.0138413	-0.219612	-0.21603	-1.78688	0.0526997	0.0409545	-0.00521385	-0.372606	0.129677	-0.0404834	-0.415173	-0.160548	-0.189064	1.97299	1.53071	0.00588342	0.0429652	-0.354389	-0.36717	0.0339308	2.16833	1.70894	0.0355502	0.0102162
0.17	0.106526	-0.0877518	-0.0570335	0.915062	1.00302	-0.316173	0.291101	0.13477	-0.287957	-0.763968	0.334579	0.030798	-0.00305	0.0621317	-0.216456	-0.183942	-1.84208	0.0752745	0.0409545	-0.00521385	-0.385011	0.126285	-0.0135385	-0.37611	-0.169245	-0.176787	1.96703	1.54073	0.00588342	0.0429652	-0.358846	-0.372444	0.019785	2.14365	1.71907	0.0355502	0.0102162
0.18	0.10439	-0.0855461	-0.0572214	0.910773	0.999808	-0.316494	0.265233	0.136049	-0.277422	-0.790343	0.389037	0.030798	-0.00305	0.138919	-0.207712	-0.153876	-1.88189	0.0955785	0.0409545	-0.00521385	-0.395277	0.119181	0.0143312	-0.339748	-0.178183	-0.162974	1.96802	1.55065	0.00588342	0.0429652	-0.363345	-0.376151	0.00915288	2.12466	1.72531	0.0355502	0.0102162
0.19	0.101321	-0.0799146	-0.0570887	0.906894	0.998129	-0.316793	0.230998	0.133076	-0.266062	-0.800599	0.43327	0.030798	-0.00305	0.214868	-0.194323	-0.127673	-1.90556	0.113895	0.0409545	-0.00521385	-0.402562	0.10816	0.0422979	-0.307181	-0.187122	-0.147238	1.97682	1.55964	0.00588342	0.0429652	-0.369012	-0.378263	0.00187257	2.11222	1.72623	0.0355502	0.0102162
0.2	0.0972268	-0.0707695	-0.0566404	0.903659	0.997993	-0.317023	0.188522	0.125882	-0.253965	-0.794291	0.464731	0.030798	-0.00305	0.288272	-0.177441	-0.107038	-1.91264	0.13034	0.0409545	-0.00521385	-0.406106	0.0931778	0.0694344	-0.279193	-0.195837	-0.129083	1.99369	1.56713	0.00588342	0.0429652	-0.377039	-0.378688	-0.0026377	2.10692	1.72109	0.0355502	0.0102162
0.21	0.0920703	-0.0581585	-0.0559238	0.901266	0.999344	-0.317142	0.138395	0.114663	-0.241613	-0.771634	0.480461	0.030798	-0.00305	0.357462	-0.15819	-0.0932893	-1.90302	0.144893	0.0409545	-0.00521385	-0.405334	0.0743054	0.0945721	-0.255953	-0.204184	-0.107718	2.01801	1.57304	0.00588342	0.0429652	-0.388711	-0.37719	-0.00559572	2.10901	1.71015	0.0355502	0.0102162
0.22	0.0859334	-0.0422985	-0.0549912	0.899849	1.00207	-0.317126	0.0816645	0.0997712	-0.229897	-0.733673	0.477471	0.030798	-0.00305	0.420867	-0.137505	-0.087139	-1.87694	0.157477	0.0409545	-0.00521385	-0.400025	0.051788	0.116601	-0.237154	-0.212066	-0.0823901	2.04841	1.57767	0.00588342	0.0429652	-0.405083	-0.373457	-0.00852373	2.11815	1.69468	0.0355502	0.0102162
0.23	0.0790236	-0.0235984	-0.053852	0.899468	1.00602	-0.316983	0.0198094	0.0817138	-0.220106	-0.682373	0.453298	0.030798	-0.00305	0.477103	-0.116029	-0.0885525	-1.83495	0.167988	0.0409545	-0.00521385	-0.39038	0.0260992	0.134685	-0.222212	-0.219408	-0.0526445	2.08301	1.58167	0.00588342	0.0429652	-0.426742	-0.367168	-0.012914	2.13346	1.67669	0.0355502	0.0102162
0.24	0.071641	-0.00269346	-0.0524503	0.900104	1.01102	-0.316754	-0.0452995	0.0611638	-0.213825	-0.620654	0.406667	0.030798	-0.00305	0.525073	-0.0941168	-0.0967118	-1.77783	0.176275	0.0409545	-0.00521385	-0.377007	-0.00200264	0.14845	-0.210497	-0.22615	-0.0185484	2.11977	1.58575	0.00588342	0.0429652	-0.453654	-0.358089	-0.0198967	2.15355	1.65852	0.0355502	0.0102162
0.25	0.0641313	0.0195195	-0.0506908	0.901658	1.01685	-0.316507	-0.111487	0.0389937	-0.212707	-0.552346	0.3381	0.030798	-0.00305	0.564043	-0.0719405	-0.110115	-1.70656	0.182097	0.0409545	-0.00521385	-0.36084	-0.031436	0.15813	-0.201576	-0.232233	0.0191594	2.15691	1.59052	0.00588342	0.0429652	-0.485088	-0.346151	-0.0299609	2.17675	1.64218	0.0355502	0.0102162
0.26	0.0568456	0.0418765	-0.0485011	0.903952	1.0233	-0.316317	-0.176416	0.0162857	-0.218119	-0.482047	0.250334	0.030798	-0.00305	0.593652	-0.0496865	-0.126809	-1.62228	0.185115	0.0409545	-0.00521385	-0.343046	-0.0608061	0.164616	-0.195355	-0.237607	0.0590567	2.19312	1.5963	0.00588342	0.0429652	-0.519677	-0.331515	-0.0428403	2.20131	1.62899	0.0355502	0.0102162
